<?xml version="1.0" encoding="UTF-8"?>
<svg id="Layer_2" data-name="Layer 2" xmlns="http://www.w3.org/2000/svg" viewBox="0 0 202.44 50.01">
  <defs>
    <style>
      .cls-1 {
        fill: #fff;
      }

      .cls-2 {
        fill: #ec3330;
      }

      .cls-3 {
        fill: #221f1f;
      }
    </style>
  </defs>
  <g id="Layer_1-2" data-name="Layer 1">
    <g>
      <g>
        <circle class="cls-1" cx="25.06" cy="25.11" r="19.48"/>
        <g>
          <path class="cls-2" d="m25.77,50.01h-3.76c0-1.5,0-2.99,0-4.49,0-.05,0-.1,0-.14,0-.08-.05-.13-.13-.14-.03,0-.07-.01-.1-.02-.45-.08-.91-.16-1.36-.27-.13-.03-.27-.07-.4-.1-.46-.11-.9-.25-1.35-.39-.49-.16-.97-.34-1.45-.54-.2-.08-.22-.07-.33.11-.48.77-.96,1.53-1.43,2.3-.25.4-.49.8-.74,1.19-.04.06-.08.12-.12.17-.03.04-.08.05-.13.03-.06-.03-.11-.05-.16-.09-.5-.3-1.01-.6-1.51-.89-1.15-.67-2.29-1.35-3.44-2.02-.18-.1-.18-.12-.07-.3.33-.54.67-1.08,1-1.62.26-.42.52-.83.78-1.25.16-.26.32-.51.48-.77.02-.04.04-.07.06-.11.09-.15.08-.17-.05-.3-.06-.06-.12-.11-.18-.17-.07-.06-.13-.12-.2-.18-.8-.75-1.55-1.54-2.23-2.41-.04-.05-.08-.1-.12-.14-.05-.05-.1-.07-.17-.04-.07.03-.14.06-.2.1-1.12.61-2.24,1.22-3.36,1.83-.11.06-.22.12-.33.17-.06.03-.11.02-.15-.03-.03-.04-.06-.09-.09-.14-.51-.88-1.02-1.77-1.53-2.65-.45-.78-.9-1.56-1.35-2.35-.02-.03-.03-.06-.05-.09-.04-.08-.02-.13.06-.17.13-.08.26-.15.4-.22.6-.32,1.2-.65,1.8-.97.53-.29,1.07-.58,1.6-.87.06-.03.12-.06.18-.1.09-.06.11-.1.08-.21-.02-.07-.05-.14-.07-.22-.38-1.14-.67-2.3-.85-3.49,0-.06-.01-.12-.03-.18-.02-.1-.06-.13-.15-.14-.03,0-.05,0-.08,0-.48-.01-.95-.03-1.43-.03-.92,0-1.83-.03-2.75-.05-.24,0-.25-.03-.26-.26,0-.28-.02-.55-.03-.83,0-.07-.02-.14-.04-.2,0-1.65,0-3.31,0-4.96.1,0,.21-.01.31,0,.57,0,1.13.01,1.69.03.39.02.77,0,1.16.01.24,0,.48,0,.72.02.24.01.48.02.72.02.19,0,.22-.02.26-.22,0-.01,0-.03,0-.04.17-.92.4-1.82.7-2.7.11-.34.24-.68.37-1.01.06-.16.05-.19-.1-.28-.02-.01-.04-.02-.05-.03-.39-.23-.78-.46-1.17-.69-.6-.35-1.2-.71-1.8-1.07-.21-.13-.43-.25-.64-.38-.13-.08-.14-.11-.07-.25,0-.01.01-.02.02-.04.11-.2.22-.4.33-.6.29-.52.58-1.05.88-1.57.53-.95,1.06-1.9,1.59-2.86.14-.26.15-.26.41-.1.89.53,1.79,1.06,2.68,1.59.34.2.67.4,1.01.6.17.1.19.09.31-.06.2-.23.39-.46.6-.68.29-.31.59-.6.88-.9.52-.52,1.08-.98,1.65-1.44.23-.19.26-.16.09-.47-.22-.41-.44-.81-.66-1.22-.28-.53-.57-1.06-.85-1.58-.14-.26-.28-.52-.42-.78-.11-.21-.1-.24.11-.35.35-.2.69-.4,1.04-.59,1.28-.74,2.57-1.48,3.85-2.21.07-.04.13-.08.2-.11.08-.04.12-.03.17.05.04.06.07.12.1.18.28.52.56,1.05.84,1.57.34.63.67,1.25,1.01,1.87.07.12.13.24.2.36.07.12.1.13.22.09.2-.06.39-.13.59-.19.8-.25,1.62-.45,2.45-.6.1-.02.19-.03.28-.05.1-.03.14-.07.15-.17,0-.06,0-.12,0-.19,0-.95,0-1.9,0-2.85,0-.48,0-.95,0-1.43h2.65c.07.03.15.03.22.03.79,0,1.57.02,2.36.05.22,0,.44,0,.66.01.09,0,.18.01.27.02.07,0,.11.05.12.12,0,.08.01.16.01.25,0,1.27,0,2.54,0,3.8,0,.3,0,.31.3.36.28.05.57.1.85.16.79.16,1.55.37,2.31.63.43.14.85.32,1.28.48.24.09.26.09.4-.13.33-.53.66-1.07.99-1.6.39-.63.79-1.26,1.18-1.9.02-.04.04-.07.07-.1.06-.07.1-.09.18-.05.06.03.12.07.18.11.68.45,1.37.91,2.05,1.36.88.59,1.77,1.17,2.65,1.76.25.17.25.18.09.44-.5.81-1.01,1.61-1.51,2.42-.2.32-.39.63-.59.95-.1.17-.1.18.04.31.13.12.26.23.38.34.77.72,1.48,1.48,2.13,2.3.06.08.12.15.18.23.06.07.1.08.18.04.07-.03.14-.06.2-.1,1.19-.65,2.37-1.29,3.56-1.94.22-.12.24-.11.36.12.29.58.59,1.15.88,1.73.57,1.13,1.15,2.26,1.72,3.39.02.04.04.07.05.11.04.1.03.14-.06.19-.06.04-.13.08-.2.11-.13.07-.26.13-.38.2-.77.42-1.54.84-2.31,1.25-.27.14-.53.29-.8.44-.11.06-.12.09-.08.22,0,.02.01.04.02.06.38,1.11.67,2.25.86,3.4.02.14.04.27.06.41.02.12.06.15.18.16.03,0,.06,0,.08,0,.94.02,1.89.03,2.83.05.48,0,.95.02,1.43.04.03,0,.07,0,.1.01v1.32c0,.08-.02.16-.03.25,0,.34-.02.69-.04,1.03-.03.65-.06,1.29-.09,1.94-.02.45-.04.91-.06,1.36,0,.06,0,.11-.01.16-.02.15-.05.18-.2.18-.06,0-.12,0-.19,0-.81-.01-1.63-.03-2.44-.04-.41,0-.83,0-1.24-.03-.1,0-.19,0-.29,0-.09,0-.14.05-.16.13-.01.04-.02.08-.02.12-.04.21-.08.42-.13.63-.22,1.03-.52,2.03-.9,3.01-.09.22-.08.23.13.36.49.29.98.59,1.48.88.71.42,1.41.83,2.12,1.25.18.11.19.14.08.33-.15.25-.31.49-.46.74-.53.85-1.06,1.69-1.6,2.54-.33.53-.67,1.06-1,1.59-.04.06-.08.11-.12.17-.03.04-.08.05-.13.03-.03-.01-.06-.03-.09-.05-.59-.35-1.17-.69-1.76-1.04-.58-.34-1.15-.68-1.73-1.02-.21-.12-.22-.12-.37.07-.52.64-1.1,1.22-1.69,1.79-.41.4-.85.76-1.3,1.12-.07.06-.14.11-.21.17-.07.06-.08.09-.04.18.03.06.06.12.09.18.64,1.2,1.29,2.39,1.93,3.59.02.04.05.08.07.13.03.07.02.11-.05.16-.04.03-.08.05-.13.07-.41.21-.82.42-1.23.63-.88.44-1.76.89-2.64,1.33-.4.2-.8.41-1.2.61-.05.02-.1.05-.15.07-.13.05-.17.04-.24-.07-.02-.03-.03-.06-.05-.09-.29-.54-.58-1.08-.87-1.62-.25-.47-.5-.94-.75-1.4-.09-.18-.19-.35-.29-.53-.08-.15-.1-.16-.26-.11-.16.05-.33.11-.49.16-.46.14-.92.28-1.39.39-.31.07-.62.15-.93.2-.18.03-.37.07-.55.11-.11.02-.14.06-.14.17,0,.08,0,.15,0,.23,0,1.31,0,2.62,0,3.93,0,.07,0,.14,0,.21,0,.1-.04.13-.14.14-.02,0-.04,0-.06,0-.39.01-.78.03-1.18.04-.21,0-.41,0-.62,0-.16,0-.33,0-.49.07Zm-.72-6.21c.28,0,.56-.02.85-.03.45-.02.89-.05,1.34-.1.49-.05.97-.14,1.45-.22.33-.06.65-.14.97-.22.87-.21,1.72-.49,2.55-.84.68-.28,1.35-.6,1.99-.96.67-.37,1.31-.78,1.93-1.23.69-.5,1.35-1.05,1.97-1.64.58-.55,1.12-1.15,1.62-1.77.49-.61.94-1.24,1.35-1.9.46-.74.87-1.5,1.22-2.3.69-1.55,1.15-3.16,1.4-4.83.08-.57.16-1.13.18-1.71.04-1.14.04-2.27-.11-3.41-.11-.82-.25-1.64-.46-2.44-.2-.78-.45-1.55-.76-2.3-.21-.52-.43-1.03-.69-1.53-.27-.52-.56-1.03-.87-1.53-.58-.91-1.22-1.77-1.95-2.57-.36-.4-.74-.8-1.14-1.16-.31-.28-.61-.56-.93-.82-.82-.67-1.69-1.26-2.61-1.79-.76-.43-1.54-.81-2.35-1.13-1.09-.44-2.21-.76-3.37-.98-.58-.11-1.16-.2-1.74-.25-.61-.06-1.22-.08-1.84-.09-.24,0-.48.02-.72.02-.46,0-.92.04-1.38.09-.51.06-1.02.14-1.53.23-.75.14-1.48.33-2.2.57-.77.25-1.53.55-2.26.91-.45.22-.9.45-1.34.7-.6.35-1.19.73-1.75,1.15-.57.42-1.11.88-1.64,1.36-.57.52-1.1,1.09-1.6,1.67-.52.61-.99,1.26-1.42,1.93-.57.88-1.06,1.79-1.47,2.75-.24.56-.45,1.14-.64,1.72-.18.54-.32,1.1-.45,1.66-.11.5-.2,1-.27,1.51-.09.65-.15,1.3-.16,1.96,0,.09,0,.18-.01.27-.02.21-.02.43,0,.64,0,.27.02.54.03.81,0,.08,0,.15,0,.23.05.59.11,1.18.21,1.77.19,1.19.5,2.35.92,3.47.4,1.08.89,2.12,1.49,3.11.51.85,1.08,1.65,1.71,2.41.54.65,1.12,1.27,1.75,1.84.66.6,1.36,1.16,2.1,1.67.82.57,1.69,1.06,2.6,1.49.75.36,1.53.67,2.33.92,1.2.38,2.42.64,3.68.77.67.07,1.35.09,2.02.11Z"/>
          <path class="cls-2" d="m14.88,35.24c.29,0,.58,0,.87,0,.27,0,.26.06.28.26.02.23.04.47.06.7.03.38.06.76.09,1.13,0,.01,0,.03,0,.04.02.18.05.21.21.26.2.06.4.11.6.16.5.13,1,.26,1.5.39.34.09.31.06.43.4.3.87.6,1.75.9,2.62.02.06.04.12.05.18,0,.04-.03.09-.07.08-.05,0-.1-.01-.14-.03-.47-.16-.94-.33-1.4-.5-.63-.23-1.24-.5-1.84-.8-.77-.37-1.51-.79-2.22-1.27-.64-.43-1.25-.91-1.81-1.44-.65-.6-1.22-1.27-1.73-1.99-.42-.59-.77-1.23-1.07-1.89-.47-1.04-.79-2.13-.97-3.26-.01-.09-.03-.18-.04-.26,0-.07.04-.1.1-.09.07.01.13.04.2.06.29.1.59.2.88.3.2.07.23.05.23-.17,0-.29.01-.58.04-.87.02-.24-.02-.47-.06-.7-.06-.31-.11-.62-.16-.94-.04-.22-.01-.25.22-.25.06,0,.12,0,.19,0,.26,0,.52,0,.79,0,.15,0,.25-.04.31-.18.06-.13.14-.25.21-.38.38-.7.76-1.41,1.13-2.11.03-.05.05-.1.08-.14.02-.03.04-.07.08-.05.04.02.03.06.03.09-.03.3-.05.6-.08.91-.04.39-.07.78-.11,1.17-.02.25-.04.51-.07.76-.02.13.02.22.14.29.21.13.42.26.63.39.22.14.22.15.04.35-.37.42-.74.85-1.12,1.28-.02.03-.05.05-.07.08-.03.04-.03.08,0,.12.03.05.07.1.11.15.25.3.51.6.76.9.01.02.03.03.04.05.1.1.1.2.03.32-.18.32-.35.64-.53.96-.05.1-.11.19-.16.29-.06.11-.04.15.09.17.19.04.38.06.57.09.33.05.65.09.98.14.21.03.23.07.18.27-.15.57-.3,1.13-.45,1.7-.01.05-.03.11-.03.16,0,.05.02.08.07.09.05,0,.11.01.16.01.28,0,.55,0,.83,0h0Z"/>
          <path class="cls-2" d="m25.05,37.13c-3.03-.04-5.69-1.07-7.9-3.17-2.29-2.19-3.49-4.89-3.59-8.06-.19-6.31,4.82-11.77,11.46-11.84,3.06.04,5.74,1.06,7.96,3.18,2.33,2.22,3.53,4.97,3.58,8.19.05,3.14-1.03,5.86-3.19,8.14-2.14,2.25-5.05,3.53-8.32,3.56Zm10.73-11.55c.03-.7-.06-1.42-.2-2.13-.21-1.04-.57-2.03-1.07-2.96-.29-.54-.62-1.04-1-1.52-.34-.44-.73-.85-1.13-1.23-.57-.54-1.19-1-1.86-1.4-.68-.41-1.41-.73-2.16-.97-.9-.29-1.83-.45-2.78-.5-.76-.04-1.52.02-2.27.14-.67.11-1.32.28-1.96.52-.88.32-1.7.76-2.46,1.3-.36.25-.69.53-1.02.81-.53.47-1,1-1.43,1.58-.4.54-.75,1.12-1.04,1.73-.41.84-.69,1.73-.87,2.64-.13.67-.19,1.34-.18,2.01,0,.44,0,.88.07,1.32.18,1.36.59,2.65,1.25,3.85.46.85,1.03,1.61,1.7,2.31.59.61,1.24,1.14,1.95,1.59.55.35,1.12.65,1.72.89.84.34,1.71.58,2.61.69.36.04.71.09,1.07.09.53,0,1.06,0,1.59-.07.58-.07,1.14-.18,1.7-.34.74-.21,1.45-.5,2.12-.86.39-.21.77-.44,1.12-.69.42-.3.82-.63,1.19-.99.27-.26.53-.52.77-.81.45-.54.86-1.11,1.21-1.73.41-.73.74-1.5.96-2.3.27-.96.42-1.94.39-2.97Z"/>
          <path class="cls-2" d="m41.54,30.4c-.02.12-.04.25-.06.38-.2,1.03-.49,2.04-.93,2.99-.39.86-.88,1.67-1.47,2.41-.36.46-.75.9-1.18,1.3-.46.43-.94.83-1.44,1.21-.57.42-1.16.79-1.77,1.14-.63.36-1.28.67-1.94.96-.57.25-1.15.47-1.73.68-.22.08-.44.15-.67.23-.07.02-.13.04-.2.05-.07.01-.11-.02-.09-.09.01-.05.03-.09.05-.14.31-.76.63-1.53.95-2.29.07-.16.13-.32.2-.48.04-.11.11-.17.22-.2.18-.05.36-.1.54-.14.56-.14,1.12-.29,1.68-.43.03,0,.05-.02.08-.02.1-.02.15-.09.16-.19,0-.05.02-.1.02-.14.05-.58.09-1.15.14-1.73,0-.07.02-.14.03-.2.01-.06.05-.1.11-.11.07,0,.15-.01.23-.01.49,0,.98,0,1.47,0,.07,0,.14,0,.21,0,.15,0,.18-.05.15-.19,0-.05-.02-.09-.04-.14-.14-.53-.28-1.05-.42-1.58-.01-.05-.03-.11-.04-.16,0-.06.02-.11.08-.13.07-.02.13-.03.2-.04.49-.07.98-.14,1.47-.21.01,0,.03,0,.04,0,.07-.02.09-.06.07-.12-.02-.04-.04-.09-.07-.13-.2-.37-.4-.74-.61-1.11-.12-.22-.13-.24.04-.43.23-.27.46-.54.68-.8.05-.06.1-.11.14-.18.06-.09.07-.14,0-.22-.13-.15-.26-.3-.39-.45-.25-.29-.51-.58-.76-.87-.03-.04-.06-.07-.09-.11-.03-.05-.02-.09.02-.13.05-.04.1-.07.15-.11.2-.13.41-.26.62-.38.1-.06.14-.13.13-.25-.05-.47-.09-.95-.13-1.42-.04-.46-.08-.92-.12-1.38,0-.04,0-.08,0-.12,0-.02.01-.04.04-.04.02,0,.04.01.05.02.03.03.05.07.07.1.42.78.84,1.57,1.26,2.35.04.07.08.14.12.22.06.12.15.17.28.17.3,0,.59,0,.89,0,.06,0,.12,0,.19,0,.13.01.16.05.15.19,0,.07-.02.14-.03.2-.05.29-.09.57-.15.86-.05.27-.05.55-.04.82,0,.22.02.44.03.66,0,.05,0,.1.01.14,0,.05.05.08.11.07.05-.01.11-.03.16-.04.31-.1.61-.21.92-.31.04-.01.08-.03.12-.04.06-.01.09.02.09.08,0,.01,0,.03,0,.05Z"/>
          <path class="cls-2" d="m31.37,10.49c0,.09.05.14.08.2.08.17.09.35.01.52-.13.31-.34.53-.68.61-.1.02-.21.03-.31.02-.34-.05-.66-.14-.94-.35-.18-.13-.31-.29-.4-.49-.24-.48,0-1.23.71-1.34.26-.04.52-.02.78.04.47.11.9.31,1.28.6.04.03.08.06.12.08.08.05.12.03.16-.05.01-.02.02-.05.03-.08,0-.04,0-.07-.03-.09-.05-.03-.09-.06-.14-.08-.87-.42-1.76-.76-2.68-1.02-.25-.07-.49-.13-.74-.19-.05-.01-.09-.02-.14-.03-.07,0-.1.02-.13.08,0,.02-.02.04-.02.06-.03.12-.05.24-.07.36-.02.07,0,.14.06.19.04.04.08.08.11.12.35.43.21.91-.14,1.16-.13.1-.29.16-.45.21-.11.03-.23.06-.34.08-.52.06-1.03.05-1.52-.16-.27-.11-.5-.28-.69-.51-.09-.11-.17-.24-.21-.38-.1-.39.03-.84.48-1.08.27-.14.55-.21.85-.22.21,0,.41,0,.62,0,.05,0,.11,0,.16,0,.03,0,.06-.03.06-.07,0-.03-.02-.05-.05-.06-.08-.02-.16-.04-.24-.05-.5-.04-1-.1-1.5-.1-.1,0-.19,0-.29-.01-.09,0-.18,0-.27,0-.14,0-.18.04-.19.19,0,.05,0,.1,0,.14,0,.35,0,.7.01,1.05,0,.27.02.54.03.81,0,.06,0,.12,0,.19,0,.07-.05.11-.12.12-.05,0-.1,0-.14.01-.15,0-.3.02-.45.03-.03,0-.07,0-.1,0-.05,0-.09-.03-.11-.08-.01-.04-.02-.08-.02-.12-.03-.35-.06-.7-.09-1.05-.03-.34-.06-.67-.08-1.01,0-.02,0-.04,0-.06-.02-.09-.06-.13-.16-.13-.11,0-.22.02-.33.04-.02,0-.04.01-.05.03-.02.03,0,.05.03.07.21.16.3.39.35.64.05.26.07.52.01.78-.07.32-.24.57-.53.73-.39.21-.8.3-1.24.23-.09-.01-.17-.04-.26-.08-.35-.17-.48-.5-.43-.84.02-.13.09-.25.18-.34.22-.22.5-.31.79-.37.06-.01.12,0,.17.05.03.02.05.04.08.07.14.12.16.2-.04.24-.06.02-.13.05-.18.09-.21.15-.23.47-.04.65.13.12.37.1.48-.05.03-.04.06-.09.07-.15.02-.07.03-.13.04-.2.01-.31-.04-.6-.15-.89-.05-.13-.14-.24-.25-.32-.13-.1-.28-.15-.45-.11-.44.09-.87.21-1.3.33-.02,0-.04.01-.06.02-.09.04-.11.08-.09.18,0,.03.01.05.02.08.18.61.36,1.23.55,1.84.02.06.04.12.05.18.02.11,0,.15-.11.19-.19.07-.39.14-.59.2,0,0-.01,0-.02,0-.09.02-.13,0-.17-.07-.02-.05-.04-.1-.06-.15-.11-.29-.21-.58-.32-.87-.08-.22-.1-.22-.31-.13-.2.08-.39.17-.59.25-.05.02-.09.03-.12.08-.11.2-.27.36-.45.5.01.06.06.05.09.05.21,0,.4.07.58.19.08.06.17.11.27.16.19.1.38.12.57,0,.01,0,.02-.01.04-.02.07-.03.12,0,.13.07,0,.05,0,.11,0,.17,0,.14-.06.23-.18.31-.38.25-.78.28-1.2.11-.22-.09-.44-.19-.67-.28-.07-.03-.14-.05-.21-.07-.17-.05-.34-.05-.5.05-.1.06-.13.05-.19-.04-.06-.09-.12-.19-.17-.28-.03-.06-.01-.1.05-.14.04-.02.09-.04.13-.06.13-.06.26-.12.39-.18.12-.06.23-.15.32-.26.13-.16.13-.33,0-.49-.12-.16-.33-.22-.5-.13-.13.06-.25.14-.38.21-.11.07-.22.14-.34.2-.04.02-.08.05-.13.06-.03.01-.07,0-.1-.02-.02-.02-.04-.04-.06-.06-.11-.16-.11-.21.06-.31.33-.21.67-.41,1.02-.6.72-.39,1.46-.72,2.22-1,.49-.18.99-.33,1.5-.46.35-.09.71-.18,1.07-.24.35-.06.71-.11,1.06-.16.4-.06.79-.09,1.19-.11.55-.02,1.1-.03,1.65,0,.44.03.88.07,1.32.13.57.08,1.13.18,1.69.32.98.23,1.93.57,2.85.97.66.29,1.3.64,1.92,1.01.01,0,.02.01.03.02.05.04.14.07.13.15,0,.1-.07.18-.14.24-.03.02-.07.02-.1,0-.06-.03-.12-.07-.18-.1-.05-.03-.1-.05-.15-.08-.03-.02-.07,0-.09.03-.03.03-.05.07-.07.1-.32.57-.64,1.14-.96,1.71-.14.26-.16.26-.41.12-.12-.07-.24-.13-.36-.2-.17-.09-.17-.11-.09-.29,0-.01.01-.02.02-.04.17-.35.34-.71.51-1.06.09-.18.13-.22-.08-.41-.1-.09-.2-.16-.35-.23Zm-4.16-1.26c-.24,0-.46.03-.66.13-.33.15-.44.45-.33.75.08.22.25.38.49.44.16.04.33.05.49.01.24-.05.4-.23.42-.47.02-.19,0-.36-.18-.47-.05-.04-.04-.08.02-.11.03-.01.07-.02.1-.04.08-.04.17-.04.24-.11-.06-.09-.17-.07-.26-.09-.11-.03-.23-.05-.33-.04Zm-8.09.36s-.07.01-.1.03c-.17.07-.33.14-.49.21-.09.04-.18.08-.26.12-.05.02-.04.07,0,.09.14.06.25.14.33.27.04.06.07.07.14.04.17-.07.33-.13.5-.2.02-.01.05-.03.07-.04.03-.02.05-.06.04-.09-.02-.14-.07-.27-.14-.39-.01-.02-.04-.04-.08-.04Zm11.65.71s-.07-.03-.11-.03c-.35.04-.6.42-.52.75.01.05.03.09.06.13.09.12.23.14.34.04.04-.04.08-.08.1-.13.03-.08.06-.15.09-.23.05-.15.05-.28-.09-.39-.04-.04-.03-.06.02-.09.03-.02.08,0,.1-.05Z"/>
          <path class="cls-2" d="m11.24,23.08c-.03.39-.06.71-.14,1.01-.08.33-.25.61-.47.86-.02.03-.05.05-.08.07-.05.03-.09.04-.13,0-.11-.12-.21-.25-.29-.4-.02-.04-.01-.08.02-.11.04-.04.09-.07.13-.1.12-.08.22-.18.31-.31.11-.17.15-.35.12-.55-.04-.24-.23-.42-.46-.43-.15,0-.27.05-.35.17-.07.11-.11.24-.12.37,0,.08-.01.15-.02.23-.02.1-.05.13-.16.12-.07,0-.14-.01-.2-.03-.04,0-.07-.04-.07-.09,0-.04,0-.08,0-.12.01-.12.02-.23,0-.35-.02-.11-.05-.22-.13-.3-.08-.08-.19-.08-.28,0-.05.05-.08.11-.11.18-.07.19-.1.39-.07.59.01.1.02.19-.08.26-.04.03-.05.08-.05.13,0,.06,0,.12,0,.19,0,.13-.02.26-.03.39,0,.06,0,.13-.06.16-.08.04-.17.04-.26,0-.03-.01-.05-.05-.06-.08,0-.06-.01-.12-.01-.19.01-.27.03-.54.05-.8.06-.74.15-1.47.31-2.19.17-.81.39-1.61.67-2.39.26-.73.56-1.44.92-2.12.02-.04.06-.08.03-.11-.04-.05-.09,0-.13.02-.13.06-.26.12-.39.19-.27.15-.46.37-.55.67-.04.15-.07.2-.25.1-.1-.05-.12-.09-.11-.2,0-.05.02-.09.03-.14.09-.32.24-.62.43-.89.13-.18.28-.32.48-.42.31-.16.63-.32.95-.45.18-.07.31-.18.42-.35.49-.76,1.04-1.47,1.66-2.14.4-.43.81-.85,1.25-1.23.07-.06.14-.13.21-.2.04-.04.08-.07.12-.11.17-.13.28-.1.37.1.02.04.02.08-.01.12-.04.04-.08.08-.12.12-.05.04-.1.08-.14.12-.06.06-.06.1-.01.17.03.05.07.09.1.13.38.45.76.91,1.14,1.36.06.07.12.15.18.23.04.06.04.09,0,.15-.02.02-.04.04-.06.06-.15.14-.3.28-.45.42-.09.08-.14.08-.23-.01-.28-.29-.57-.58-.85-.88-.2-.2-.39-.41-.59-.61-.03-.03-.06-.06-.09-.08-.04-.03-.08-.04-.11,0-.11.09-.2.19-.28.3-.02.03,0,.07.04.07.18,0,.34.05.49.14.3.19.55.44.7.77.11.25.13.51.05.77-.15.45-.41.81-.81,1.07-.17.11-.37.16-.57.13-.38-.04-.66-.36-.63-.74,0-.1.03-.19.06-.28.06-.18.16-.34.27-.49.07-.09.15-.14.27-.13.06,0,.12,0,.18.02.05,0,.07.05.05.1-.03.05-.06.09-.08.14-.06.09-.08.19-.07.3.01.19.19.36.38.38.04,0,.08,0,.12-.02.19-.09.28-.29.21-.48-.02-.05-.04-.1-.07-.15-.18-.25-.4-.46-.67-.61-.12-.07-.25-.1-.4-.11-.18,0-.34.06-.45.21-.29.36-.55.74-.81,1.12-.02.03-.03.06-.05.09-.02.04,0,.08.02.11.04.04.09.07.13.1.51.34,1.02.68,1.53,1.03.06.04.13.08.18.13.06.05.08.1.04.16-.11.2-.23.39-.35.59-.05.08-.1.09-.19.05-.05-.02-.1-.05-.14-.08-.52-.31-1.05-.61-1.57-.92q-.27-.16-.41.12c-.04.07-.07.13-.1.2-.03.06-.01.1.04.14.05.04.1.07.16.09.56.3,1.12.59,1.68.89.22.12.22.13.12.35-.08.16-.15.33-.23.49-.03.06-.06.11-.13.11-.08,0-.1.06-.11.13-.01.2-.06.39-.12.59-.08.28-.19.54-.33.8-.06.11-.13.21-.22.3-.06.06-.12.11-.19.16-.23.15-.51.09-.68-.13-.07-.09-.1-.19-.13-.3-.02-.06-.03-.12-.05-.18,0-.02-.03-.03-.05-.02-.04.04-.08.08-.12.11-.24.22-.55.13-.65-.18-.04-.13-.05-.26-.03-.39.02-.14.05-.27.08-.41,0-.04.01-.08.01-.12,0,0-.01-.02-.03-.03-.01,0-.03,0-.04.01-.01.02-.02.03-.03.05-.02.04-.03.09-.05.14-.18.59-.34,1.18-.46,1.78,0,.04-.01.08-.02.12,0,.02.02.04.04.03.02,0,.04-.02.05-.03.27-.14.54-.05.68.22.03.05.02.14.09.14.05,0,.07-.07.11-.11.21-.22.46-.33.76-.24.23.06.38.22.47.43.1.23.11.48.11.66Zm.33-3.4c0-.31-.05-.39-.28-.5-.38-.17-.75-.34-1.13-.51-.04-.02-.09-.04-.14-.05-.03,0-.06,0-.08.02-.12.11-.11.3.03.35.22.09.17.15.11.32-.01.03-.03.06-.04.1-.04.13-.07.25-.1.38-.02.08-.01.16.03.24.06.11.18.14.28.07.05-.03.08-.07.11-.12.05-.08.09-.17.12-.26.02-.05.03-.11.05-.16.02-.05.06-.07.12-.06.03,0,.07.02.1.03.18.07.19.1.11.28-.05.12-.08.25-.1.38-.01.08,0,.16.05.24.08.14.24.17.37.08.06-.05.11-.1.15-.17.13-.22.2-.45.21-.65Z"/>
          <path class="cls-2" d="m35.74,13.86c.2-.16.36-.35.52-.53.02-.02.03-.04.05-.07.03-.05.03-.11,0-.15-.02-.03-.05-.06-.08-.09-.28-.26-.55-.52-.85-.76-.05-.04-.1-.09-.15-.14-.06-.07-.06-.1-.02-.18.11-.19.18-.2.35-.05.5.42.98.87,1.43,1.34.56.58,1.07,1.21,1.54,1.86.02.03.05.07.08.09.02.02.04,0,.05-.02,0,0,0-.01,0-.02.01-.25.03-.5-.01-.74-.04-.2-.13-.38-.27-.53-.02-.02-.04-.04-.06-.06-.12-.11-.14-.16,0-.28.1-.08.15-.09.25,0,.32.28.58.6.75,1,.06.16.1.31.1.48,0,.39,0,.79,0,1.18,0,.16.03.3.11.43.42.74.79,1.51,1.1,2.31.52,1.35.87,2.74,1.05,4.18.05.44.1.89.12,1.34,0,.1.02.19.02.29,0,.04,0,.08,0,.12-.01.14-.05.18-.19.19-.15,0-.2-.04-.21-.19-.01-.17,0-.34-.02-.52,0-.08-.01-.16-.03-.25-.01-.08-.07-.12-.14-.12-.08,0-.15,0-.23,0-.08,0-.11-.04-.13-.11-.02-.08-.03-.16-.04-.25-.03-.46-.12-.92-.19-1.37-.02-.09-.03-.19-.08-.28-.03-.06-.08-.09-.13-.07-.06.02-.09.06-.1.12,0,.05,0,.11,0,.16.04.23.08.46.12.69.03.2.06.41.08.62.02.26-.04.51-.22.71-.11.13-.25.2-.43.21-.23,0-.42-.06-.57-.23-.11-.12-.21-.26-.28-.41-.16-.35-.24-.72-.3-1.09-.04-.29-.06-.59-.05-.89,0-.15.02-.29.06-.43.03-.11.07-.14.18-.13.13,0,.26,0,.39.02.14.02.16.06.1.18-.08.15-.14.3-.19.46-.15.48-.06.91.25,1.3.06.08.14.13.25.12.16-.01.3-.16.3-.34,0-.05,0-.1-.02-.14-.05-.26-.09-.52-.14-.77-.04-.21-.08-.42-.07-.64,0-.1.02-.19.05-.28.08-.27.45-.4.69-.21.09.07.16.17.22.27.09.17.15.36.19.55.05.28.1.56.15.83.01.07.03.13.05.2,0,.02.03.03.05.02.02,0,.03-.03.03-.05,0-.04,0-.08-.01-.12-.06-.4-.14-.8-.23-1.2-.14-.61-.31-1.2-.51-1.79-.02-.06-.03-.13-.08-.18-.04,0-.05.03-.06.05-.01.02-.02.05-.04.07-.21.34-.57.4-.88.14-.15-.13-.28-.29-.38-.46-.03-.05-.05-.11-.12-.14-.01.02-.03.03-.03.05-.04.16-.12.29-.21.43-.1.16-.18.32-.24.5-.04.14-.03.27.04.4.04.09.09.17.15.24.03.04.06.09.09.14.02.03,0,.08-.04.08-.14.01-.29,0-.43-.04-.05-.01-.08-.06-.1-.1-.36-.57-.48-1.17-.21-1.81.05-.11.1-.21.14-.32.05-.11.09-.22.13-.33.06-.17.09-.34.01-.52-.04-.09-.02-.13.06-.17.09-.05.18-.1.27-.15.09-.05.14-.02.16.08.03.1.04.2.07.3.05.21.13.41.26.58.06.09.14.17.24.23.22.12.47.05.58-.17.06-.11.06-.23.02-.34-.03-.08-.06-.15-.09-.23-.18-.39-.38-.76-.59-1.14,0-.01-.01-.02-.02-.04-.06-.09-.1-.1-.19-.05-.13.07-.25.15-.37.22-.46.28-.93.57-1.39.86-.19.12-.21.11-.32-.07-.08-.12-.15-.24-.23-.37-.03-.05-.06-.09-.08-.14-.03-.06-.02-.11.03-.15.04-.04.08-.07.13-.1.44-.31.88-.62,1.32-.93.12-.08.24-.17.35-.26.06-.05.07-.09.03-.16-.07-.12-.15-.23-.24-.34-.04-.05-.09-.06-.15-.02-.06.04-.13.08-.19.13-.46.35-.92.71-1.37,1.06-.07.05-.14.11-.22.16-.05.03-.09.02-.13-.01-.02-.02-.04-.04-.06-.06-.12-.15-.24-.3-.36-.46-.02-.03-.04-.06-.06-.09-.02-.04-.02-.08.01-.12.03-.04.07-.07.1-.1.25-.22.5-.44.75-.65.02-.02.04-.03.06-.05.08-.07.09-.11.02-.19-.07-.09-.14-.17-.22-.25-.05-.05-.09-.05-.15,0-.03.02-.06.06-.1.08-.09.06-.18.13-.27.19-.3.18-.62.18-.93.02-.28-.15-.51-.37-.7-.64-.08-.12-.14-.25-.17-.4-.07-.31.02-.58.23-.8.2-.21.46-.28.74-.21.29.06.51.23.7.45.05.06.07.13.04.21-.03.09-.06.18-.08.28-.1-.02-.15-.1-.22-.15-.12-.1-.26-.12-.4-.05-.19.1-.29.27-.28.49,0,.04,0,.08.02.12.08.2.24.24.41.1,0,0,.01,0,.02-.01.16-.16.33-.32.46-.5Zm1.33.84s.05-.02.07-.03c.08-.07.17-.14.25-.21.06-.05.06-.1.01-.16-.08-.1-.16-.19-.25-.28-.05-.05-.1-.05-.15-.01-.09.08-.17.16-.25.24-.04.04-.04.09,0,.13.08.1.17.2.26.3.01.01.04.02.06.03Z"/>
          <path class="cls-2" d="m26.58,40.96c-.07-.02-.11.02-.14.04-.19.13-.38.27-.58.4-.12.08-.24.17-.35.25-.21.16-.49.09-.63-.04-.05-.05-.09-.14-.18-.13-.07,0-.12.06-.18.09-.16.09-.33.18-.51.23-.1.03-.2.04-.31.03-.2-.03-.36-.13-.45-.32-.02-.04-.03-.08-.05-.11-.03-.05-.07-.07-.12-.05-.04.02-.09.04-.13.06-.36.18-.74.31-1.13.38-.29.05-.58.05-.86-.06-.12-.05-.22-.11-.31-.21-.12-.13-.18-.27-.19-.45-.01-.23.04-.45.15-.66.14-.26.31-.49.52-.7.45-.46.99-.81,1.56-1.1.25-.13.51-.24.78-.32.12-.04.24-.06.36-.08.06,0,.12,0,.19,0,.34.04.52.31.43.64-.03.11-.08.2-.15.29-.12.18-.27.33-.43.47-.31.28-.65.51-1.02.69-.11.05-.22.09-.33.11-.08.02-.15.02-.23,0-.16-.04-.23-.2-.15-.34.04-.08.09-.14.16-.19.19-.14.39-.28.59-.42.07-.05.15-.07.24-.05.06.01.11,0,.15-.04.18-.15.37-.29.52-.48.04-.05.09-.11.11-.17.02-.07-.02-.13-.09-.12-.11.01-.22.04-.32.08-.36.14-.68.33-.98.57-.23.19-.45.39-.66.6-.17.17-.31.37-.42.59-.06.11-.1.23-.11.35-.04.26.1.45.36.51.19.04.37.01.55-.04.31-.09.6-.21.88-.36.08-.04.14-.09.17-.17.12-.24.31-.42.51-.59.13-.11.28-.19.45-.24.09-.02.18-.03.27-.01.17.04.23.18.14.33-.06.1-.13.18-.22.25-.14.12-.27.23-.42.33-.05.03-.1.07-.15.11-.09.08-.08.2.03.26.04.02.08.03.12.04.09.01.18.02.27-.01.22-.07.43-.15.58-.34.1-.13.22-.23.35-.32.19-.12.39-.17.61-.15.08,0,.16.02.19.1.04.1-.03.16-.1.21-.1.08-.21.15-.32.23-.06.05-.12.09-.18.14-.02.01-.03.04,0,.05.02.02.04,0,.06,0,.06-.04.12-.07.17-.11.37-.25.77-.46,1.17-.65.12-.06.25-.09.38-.11.08,0,.15,0,.22.02.16.06.22.2.13.35-.03.05-.08.1-.12.14-.03.04-.09.07-.1.13.04.03.08,0,.11-.02.3-.15.6-.3.91-.45.08-.04.16-.07.25-.11.11-.04.22-.02.31.06.02.01.03.03.05.04.14.14.14.21-.02.33-.09.07-.19.14-.28.21-.05.04-.1.09-.15.14-.03.04-.05.08-.02.13.02.04.06.05.11.05.08,0,.15-.01.22-.04.14-.06.28-.11.42-.17.07-.03.14-.06.21-.08.09-.03.18.05.17.15,0,.02-.02.05-.04.07-.03.03-.07.05-.11.06-.3.15-.6.28-.91.4-.13.05-.26.09-.4.11-.12.02-.23,0-.34-.05-.15-.08-.19-.19-.13-.34.02-.04.05-.08.07-.13.02-.04.08-.08.04-.12-.04-.03-.09.02-.13.04-.17.1-.34.2-.52.31-.1.06-.19.11-.29.16-.09.05-.19.07-.3.09-.07,0-.14,0-.2-.02-.17-.06-.22-.19-.13-.34.07-.12.16-.22.24-.33.03-.04.06-.07.09-.11Z"/>
          <path class="cls-2" d="m19.7,8.22s.09.01.14.03c.17.06.23.22.15.38,0,.02-.02.04-.03.05-.15.19-.35.26-.58.22-.11-.02-.2-.08-.24-.19-.04-.12,0-.21.09-.3.13-.13.28-.19.48-.2Z"/>
          <path class="cls-2" d="m24.76,39.83c-.17,0-.35-.17-.23-.39.1-.18.39-.31.59-.27.13.03.21.15.18.28,0,.04-.03.08-.05.11-.09.14-.32.27-.49.27Z"/>
          <path class="cls-2" d="m40.88,24.53c0,.1-.02.2-.09.29-.12.16-.33.14-.42-.04-.08-.18-.07-.36.02-.54.07-.13.21-.16.33-.08.05.04.09.09.11.14.03.07.04.14.04.22Z"/>
          <path class="cls-2" d="m27.86,32.36c.07.03.13.06.18.09.09.05.15.12.19.21.02.06,0,.12-.05.14-.12.04-.24.07-.36.08-.05,0-.09-.02-.14-.04-.04-.02-.09-.03-.14-.02-.23.02-.33.21-.25.42.02.04.06.05.1.01.02-.02.04-.04.06-.06.26-.25.66-.26.91,0,.24.24.35.53.32.86-.03.42-.37.68-.79.62-.02,0-.04,0-.06-.01-.04,0-.07,0-.08.04-.07.15-.22.15-.35.18-.03,0-.07-.01-.09-.05-.02-.04-.04-.09-.06-.13-.14-.42-.28-.84-.42-1.25-.02-.07-.04-.13-.05-.2-.04-.18-.02-.34.08-.49.01-.02.02-.04.03-.05-.03-.05-.07-.02-.11-.01-.23.04-.46.09-.69.13-.69.1-1.37.1-2.06,0-.74-.1-1.45-.32-2.13-.64-.73-.35-1.39-.82-1.96-1.39-1.03-1.03-1.69-2.25-2-3.67-.13-.59-.19-1.2-.16-1.81.08-1.54.58-2.94,1.53-4.17.61-.79,1.37-1.43,2.25-1.92.83-.46,1.72-.74,2.66-.85.75-.09,1.5-.05,2.24.09.84.16,1.63.47,2.36.91.75.45,1.4,1.03,1.94,1.71.58.73,1,1.54,1.26,2.42.17.56.26,1.13.29,1.71.08,1.5-.28,2.9-1.05,4.18-.45.74-1.02,1.37-1.69,1.91-.47.38-.98.69-1.53.93-.05.02-.1.05-.15.07-.01,0-.02.02-.04.05Zm-6.79-8.46h0c0,.65,0,1.3,0,1.94,0,.06,0,.12,0,.19,0,.13.04.17.17.18.07,0,.14,0,.21,0,.9,0,1.81,0,2.71,0,.27,0,.29.02.29.3,0,.47,0,.94,0,1.41,0,.06,0,.12-.01.18,0,.05-.04.09-.1.1-.05,0-.11.01-.16.01-.16,0-.32,0-.48,0-.77,0-1.53,0-2.3,0-.08,0-.15,0-.23.01-.05,0-.09.04-.1.09,0,.03-.01.07-.01.1,0,.32,0,.65,0,.97,0,.01,0,.03,0,.04.01.12.05.15.17.16.05,0,.11,0,.17,0,1.31,0,2.62,0,3.93,0,.05,0,.1,0,.14,0,.15,0,.18-.04.19-.18,0-.08,0-.17,0-.25,0-.9,0-1.79,0-2.69,0-.24.03-.26.26-.26.49,0,.98,0,1.47,0,.05,0,.1,0,.14.01.06,0,.1.05.11.11,0,.08.01.16.01.25,0,.85,0,1.71,0,2.56,0,.08,0,.17,0,.25,0,.16.04.19.19.2.03,0,.06,0,.08,0,.27,0,.54,0,.81,0,.26,0,.28-.02.28-.29,0-1.34,0-2.69,0-4.03,0-.05,0-.1,0-.14-.01-.1-.05-.14-.14-.14-.08,0-.15,0-.23,0-.9,0-1.79,0-2.69,0-.28,0-.3-.02-.3-.29,0-.48,0-.95,0-1.43,0-.05,0-.11.01-.16,0-.05.04-.09.09-.1.04,0,.08-.01.12-.01.08,0,.17,0,.25,0,.87,0,1.74,0,2.61,0,.26,0,.28-.03.28-.29,0-.27,0-.54,0-.81,0-.28,0-.29-.29-.29-1.34,0-2.67,0-4.01,0-.06,0-.11,0-.17,0-.07,0-.11.05-.12.12,0,.08,0,.15,0,.23,0,.92,0,1.83,0,2.75,0,.26-.02.28-.29.28-.48,0-.95,0-1.43,0-.05,0-.1,0-.14,0-.09-.01-.12-.05-.13-.13,0-.06,0-.12,0-.19,0-.76,0-1.52,0-2.27,0-.18,0-.36,0-.54,0-.21-.04-.24-.24-.25-.01,0-.03,0-.04,0-.28,0-.57,0-.85,0-.03,0-.07,0-.1,0-.1.01-.14.05-.15.14,0,.07,0,.14,0,.21,0,.65,0,1.3,0,1.94Zm7.12,10.08c-.02-.15-.06-.3-.17-.43-.08-.09-.18-.14-.29-.1-.11.04-.18.12-.2.24-.03.2.02.38.16.53.09.1.23.13.34.08.11-.05.18-.16.18-.32Z"/>
          <path class="cls-2" d="m34.15,27.27c-.1-.09-.22-.13-.34-.18-.25-.1-.5-.19-.75-.29-.04-.01-.08-.03-.11-.05-.06-.03-.08-.07-.08-.13,0-.09.02-.18.03-.27,0-.06.05-.1.11-.11.07-.01.13-.03.2-.04.34-.04.68-.09,1.02-.13.01,0,.02-.01.04-.02,0-.05-.03-.04-.05-.04-.33-.04-.67-.08-1-.13-.24-.03-.27-.07-.23-.31,0-.01,0-.03,0-.04.02-.12.06-.14.19-.14.03,0,.05,0,.08,0,.59.07,1.19.15,1.78.22.21.03.23.05.21.26-.01.11-.03.22-.04.33-.02.13-.04.15-.18.18-.06.01-.12.02-.18.03-.3.04-.6.08-.9.12-.02,0-.04,0-.06.02,0,0-.01,0-.01.01,0,.01,0,.03,0,.04.04.02.08.05.13.07.27.11.55.22.82.33.27.11.28.12.24.41-.01.1-.03.2-.05.31-.01.06-.06.09-.12.09-.07,0-.14,0-.21-.01-.53-.06-1.05-.13-1.58-.2-.08-.01-.16-.02-.24-.04-.08-.02-.11-.06-.11-.13.02-.33.05-.36.35-.32.35.05.7.09,1.04.13Z"/>
          <path class="cls-2" d="m16.98,29.64c.08,0,.15-.02.22-.05.16-.06.32-.13.48-.19.08-.03.17-.06.25-.09.08-.02.12,0,.15.06.04.07.07.15.09.23.02.07,0,.11-.07.15-.03.02-.06.03-.09.04-.37.15-.74.3-1.11.44-.21.08-.24.07-.32-.14-.03-.07-.05-.14-.01-.22.02-.04,0-.08-.04-.11-.03-.03-.06-.05-.09-.08-.15-.16-.21-.34-.16-.55,0-.03.02-.07.02-.1,0-.04,0-.08-.04-.11-.04-.03-.08-.06-.12-.09-.12-.09-.19-.22-.22-.36-.05-.26.04-.45.27-.56.17-.09.35-.15.53-.23.15-.06.29-.12.44-.17.14-.05.18-.04.24.11.03.06.05.13.07.2.01.04,0,.08-.04.11-.05.03-.11.06-.17.08-.22.09-.44.17-.65.26-.06.03-.12.06-.18.1-.08.06-.09.15-.03.24.06.09.14.13.25.12.1,0,.19-.04.28-.07.19-.08.38-.15.58-.23.18-.07.2-.05.28.13.1.23.09.26-.15.35-.19.07-.37.14-.56.22-.08.03-.15.06-.23.1-.08.04-.13.1-.12.2.01.09.12.19.21.21.01,0,.03,0,.04,0Z"/>
          <path class="cls-2" d="m21.39,35.04c-.29-.02-.56-.12-.78-.33-.16-.16-.24-.35-.25-.57,0-.04,0-.08.01-.12,0-.04.04-.07.09-.07.11,0,.22.01.32.05.05.02.08.06.09.11,0,.04.02.08.02.12.04.3.42.44.67.3.08-.04.15-.1.2-.17.13-.19.23-.39.26-.62.04-.23-.07-.43-.27-.53-.13-.06-.25-.06-.37.01-.06.04-.12.09-.18.14-.07.06-.11.06-.18,0-.06-.05-.12-.11-.18-.17-.06-.07-.06-.11,0-.18.18-.21.4-.31.67-.31.44,0,.97.33,1.03.92.02.18-.01.34-.07.51-.07.22-.18.42-.33.59-.19.22-.44.33-.75.34Z"/>
          <path class="cls-2" d="m23.24,16.92c0-.15.01-.27.05-.38.12-.32.44-.51.77-.42.2.05.22.06.2-.17,0-.1-.03-.2-.03-.31,0-.12.03-.15.15-.18,0,0,.01,0,.02,0,.24-.05.29-.02.33.23.05.35.09.7.13,1.04.03.2.05.41.08.61,0,.08.02.15.02.23,0,.08-.03.12-.1.13-.11.02-.22.04-.32-.01-.06-.03-.1-.02-.15.02-.02.02-.05.03-.07.04-.32.18-.68.09-.89-.21-.14-.19-.17-.42-.18-.61Zm1.15.13c0-.15-.02-.27-.08-.38-.06-.13-.19-.2-.31-.19-.12.02-.22.12-.25.27-.02.13-.01.26.02.39.02.07.05.13.1.18.14.16.36.14.46-.05.04-.07.05-.15.05-.22Z"/>
          <path class="cls-2" d="m15.24,27.26s-.08,0-.11,0c-.06,0-.1-.04-.12-.1,0,0,0-.01,0-.02-.04-.33-.04-.35.28-.37.08,0,.17,0,.25-.02.1-.01.12-.05.08-.14-.01-.03-.03-.06-.05-.09-.13-.32-.02-.67.28-.84.31-.17.64-.2.98-.07.34.13.5.48.39.83,0,.03-.02.05-.03.08-.02.05-.03.11.02.15.06.06.06.14.07.21.03.22-.05.23-.19.24-.25.02-.51.05-.76.07-.36.03-.73.05-1.08.08Zm1.06-.58c.13,0,.23,0,.33-.05.15-.06.24-.19.23-.33-.01-.12-.13-.24-.28-.26-.1-.02-.21-.01-.31,0-.07.02-.13.03-.19.07-.12.07-.17.18-.14.32.02.13.11.2.23.23.05.01.11.01.14.02Z"/>
          <path class="cls-2" d="m19.92,31.61s-.02.07-.04.09c-.05.07-.1.13-.15.2-.08.11-.17.22-.26.32-.06.08-.12.15-.17.24-.08.13-.06.22.04.32.09.09.21.1.32.03.1-.06.17-.14.24-.23.11-.15.23-.29.34-.44.03-.04.07-.08.11-.12.04-.04.09-.04.13,0,.07.05.14.11.21.17.05.04.05.09.02.15-.02.04-.05.07-.07.1-.37.47-.73.95-1.1,1.42-.15.19-.17.2-.36.05,0,0-.01,0-.02-.01-.15-.12-.15-.14-.04-.3.08-.11.17-.22.25-.33.03-.05.01-.1-.05-.11-.13-.02-.25-.07-.36-.15-.23-.18-.29-.44-.15-.7.03-.05.06-.1.09-.14.18-.23.35-.46.53-.69.11-.14.15-.15.31-.04.04.03.09.07.13.11.02.02.03.05.04.07Z"/>
          <path class="cls-2" d="m19.21,30.99c0,.38-.36.62-.68.48-.13-.06-.24-.16-.35-.25-.06-.05-.13-.1-.2-.15-.04-.02-.08-.03-.11,0-.03.03-.05.07-.04.11.02.12.13.25.26.26.2,0,.23.16.29.3.02.05,0,.09-.06.12-.11.05-.23.04-.34.01-.03,0-.07-.02-.1-.04-.26-.15-.43-.38-.52-.67-.04-.14,0-.27.1-.38.06-.06.12-.12.18-.17.09-.07.18-.15.28-.22.16-.12.32-.24.43-.41.05-.07.1-.07.15-.01.09.1.18.19.19.33,0,.06.04.09.08.11.05.03.1.05.15.08.18.12.28.29.3.48Zm-.75-.32c-.08,0-.15.03-.2.09-.03.03-.03.07,0,.09.07.08.16.15.26.19.12.05.22-.05.2-.17-.02-.12-.12-.2-.25-.2Z"/>
          <path class="cls-2" d="m32.14,31.77c0,.12-.02.21-.07.29-.11.19-.25.35-.43.46-.2.12-.39.12-.57-.03-.08-.06-.15-.14-.23-.21-.13-.12-.25-.24-.37-.36-.08-.07-.17-.12-.25-.18-.05-.03-.06-.08-.02-.12.09-.1.16-.23.31-.25.05,0,.07-.04.08-.08.02-.05.03-.11.05-.16.08-.18.22-.31.42-.37.19-.05.36,0,.49.14.12.14.17.3.1.48-.03.1-.09.19-.14.28-.05.09-.11.18-.16.27-.02.04-.03.09,0,.13.04.04.1.05.15.02.1-.05.15-.13.18-.24,0-.01,0-.03,0-.04-.03-.14.06-.21.16-.28.15-.1.21-.08.26.1.01.05.02.11.02.13Zm-1.27-.25c0,.09.04.16.11.22.03.03.08.02.11-.01.06-.08.12-.17.15-.27.02-.05.02-.11-.03-.15-.05-.05-.1-.06-.17-.04-.11.03-.18.13-.18.25Z"/>
          <path class="cls-2" d="m32.33,19.84c.32,0,.55.17.68.45.13.27.1.54-.09.77-.06.07-.13.14-.2.21-.12.11-.17.1-.27-.02-.12-.16-.23-.32-.35-.49-.03-.04-.06-.08-.09-.12-.06-.07-.14-.06-.18.02-.08.18,0,.35.19.4.03,0,.07,0,.1.02.04,0,.06.02.09.05.06.08.11.18.14.28.01.04-.02.08-.06.1-.08.03-.16.03-.24.02-.33-.06-.53-.28-.64-.58-.11-.29-.02-.54.18-.76.1-.11.22-.19.35-.26.12-.06.26-.1.4-.1Zm.07.45s-.03,0-.05,0c-.09.02-.12.08-.07.15.06.1.13.19.2.28.03.04.09.04.12,0,.07-.08.08-.18.03-.27-.05-.1-.13-.16-.24-.16Z"/>
          <path class="cls-2" d="m17.15,20.5c-.03-.35.29-.84.74-.89.35-.04.73.15.91.48.17.31.13.68-.11.96-.06.07-.12.13-.2.18-.21.14-.44.19-.69.1-.21-.08-.38-.19-.51-.37-.1-.14-.16-.29-.15-.46Zm.8-.42c-.23-.01-.46.24-.31.5.09.16.23.25.4.3.05.01.1.01.14,0,.18-.03.3-.21.27-.38-.04-.21-.29-.42-.51-.42Z"/>
          <path class="cls-2" d="m16.38,23.65c.26,0,.31.05.28.29-.02.14-.04.29-.05.43,0,.08,0,.17,0,.25,0,.06.06.1.12.09.18-.04.29-.29.15-.42-.12-.12-.11-.22-.06-.35,0-.02.01-.04.02-.06.05-.12.11-.14.22-.06.11.08.19.18.23.31.09.26.05.52-.09.76-.16.27-.42.34-.71.34-.11,0-.22-.02-.33-.05-.49-.12-.79-.68-.43-1.22.09-.14.23-.22.39-.26.09-.02.19-.04.27-.04Zm-.09.68s0-.06,0-.07c0-.11-.09-.16-.18-.1-.17.1-.18.32-.02.46.08.06.15.05.17-.05.02-.09.03-.18.04-.23Z"/>
          <path class="cls-2" d="m33.12,29.83c-.42,0-.8-.28-.89-.67-.11-.46.21-.98.66-1.06.25-.05.48.02.69.16.33.2.46.56.35.93-.11.39-.42.64-.81.64Zm-.12-1.25c-.14,0-.26.05-.32.18-.07.14-.04.27.06.38.03.04.07.07.11.09.08.05.17.08.27.1.17.03.32-.05.39-.21.06-.14.02-.3-.11-.41-.11-.09-.25-.15-.4-.15Z"/>
          <path class="cls-2" d="m33.38,22.19c.01.09.02.18.03.26.02.12.02.23.01.35-.03.23-.2.4-.44.41-.18,0-.34-.06-.46-.19-.19-.22-.29-.48-.28-.78,0-.15.06-.28.16-.39.07-.08.14-.08.2,0,.03.04.05.08.08.12.06.09.08.18,0,.29-.08.11-.05.24.02.35.02.03.05.06.08.09.06.05.15,0,.15-.07,0-.04,0-.08,0-.12-.01-.08-.03-.15-.04-.22-.02-.12-.03-.25,0-.37.05-.31.35-.48.64-.37.09.03.16.08.22.15.18.22.28.47.27.76,0,.13-.06.24-.15.33-.06.06-.12.06-.18-.01-.04-.05-.07-.1-.1-.16-.04-.07-.05-.14-.01-.21.07-.13.03-.25-.06-.36-.02-.02-.04-.04-.07-.03-.03,0-.05.03-.06.05,0,.05-.01.1-.01.13Z"/>
          <path class="cls-2" d="m28.16,18.34c-.24-.01-.46-.09-.65-.24-.13-.1-.22-.23-.26-.39-.01-.05-.02-.11-.01-.16,0-.04.03-.06.07-.06.12,0,.23.02.34.08.06.03.06.09.08.14.06.15.19.24.35.24.02,0,.04,0,.06,0,.06-.01.08-.08.05-.13-.03-.05-.09-.09-.14-.13-.1-.07-.2-.15-.29-.23-.04-.03-.08-.07-.12-.12-.28-.31-.05-.67.2-.76.08-.03.16-.04.24-.03.23.03.44.11.63.25.12.09.2.21.21.36,0,.03,0,.06,0,.08,0,.05-.03.08-.08.08-.1,0-.21-.01-.3-.06-.05-.02-.06-.07-.09-.11-.06-.11-.15-.17-.27-.2-.03,0-.05,0-.08,0-.05,0-.08.07-.05.11.02.03.05.07.08.09.09.07.18.13.27.2.07.05.14.11.2.17.25.26.17.64-.16.78-.09.04-.16.05-.28.05Z"/>
          <path class="cls-2" d="m30.4,33.47c-.08-.03-.12,0-.14.06-.06.14-.17.23-.3.31-.24.14-.48.1-.67-.1-.04-.05-.08-.1-.11-.15-.15-.24-.31-.47-.46-.71-.01-.02-.03-.05-.04-.07-.05-.09-.04-.13.04-.2.05-.04.11-.08.17-.11.08-.04.12-.04.18.03.03.04.06.09.09.14.12.18.23.36.35.54.03.04.05.08.08.12.09.1.19.13.29.08.11-.05.18-.19.15-.31-.01-.05-.03-.09-.05-.14-.04-.09-.09-.17-.14-.25-.09-.15-.19-.3-.29-.45-.07-.11-.06-.14.05-.22.06-.05.12-.09.19-.12.05-.02.1,0,.13.03.03.03.05.06.07.1.22.35.45.7.67,1.04.1.16.09.19-.07.3-.07.04-.13.1-.21.08Z"/>
          <path class="cls-2" d="m21.77,17.24c0,.09.03.18.05.26.06.18.12.37.19.55.08.23.07.26-.17.34-.03.01-.06.02-.1.03-.07.02-.12,0-.15-.08-.04-.1-.08-.21-.11-.31-.11-.32-.22-.64-.33-.96-.06-.17-.04-.21.14-.27.06-.02.14-.06.2-.03.1.07.14,0,.2-.06.11-.13.25-.19.41-.22.24-.04.43.05.55.27.03.06.06.12.08.19.09.27.19.53.28.8.01.04.02.08.03.12,0,.05-.01.08-.05.1-.09.04-.18.07-.27.1-.06.02-.1,0-.13-.07-.05-.13-.1-.26-.14-.39-.04-.12-.08-.23-.12-.35-.02-.06-.05-.12-.08-.17-.07-.12-.17-.16-.3-.13-.12.03-.19.14-.19.27Z"/>
          <path class="cls-2" d="m25.39,17.21c.03-.27.06-.53.1-.8,0-.08.02-.15.03-.23.02-.09.05-.12.14-.12.37.02.35.03.32.35-.02.17-.04.34-.06.51,0,.09-.02.18-.01.27,0,.12.07.2.18.23.11.03.19,0,.26-.09.05-.06.08-.13.09-.2.03-.16.05-.33.07-.49.02-.12.03-.23.05-.35.01-.08.05-.11.13-.1.08,0,.17,0,.25.02.07.01.1.05.1.13,0,.03,0,.06,0,.08-.05.38-.09.77-.14,1.15,0,.01,0,.03,0,.04-.02.08,0,.18-.09.22-.11.05-.23.02-.34-.03-.02,0-.03-.03-.05-.04-.04-.05-.1-.05-.15-.03-.05.02-.09.03-.14.04-.12.03-.25.02-.37-.02-.21-.08-.33-.22-.35-.44,0-.04,0-.08,0-.12,0,0,0,0,0,0Z"/>
          <path class="cls-2" d="m18.42,19.26s-.05-.01-.07-.03c-.05-.04-.09-.09-.13-.13-.03-.04-.04-.09-.01-.13.07-.1.05-.18-.03-.26-.02-.02-.04-.05-.06-.08-.09-.14-.09-.28-.01-.43.08-.15.2-.26.35-.34.08-.04.13-.03.18.04.02.03.04.06.06.09.04.07.03.11-.02.17-.03.03-.06.06-.08.09-.05.06-.04.13.01.19.03.03.07.05.11.02.04-.02.08-.06.12-.08.04-.02.08-.02.12,0,.06.04.11.09.15.14.03.04.03.08,0,.12,0,.01-.01.02-.02.03-.15.14-.09.18.02.3.19.2.38.4.57.6.02.02.04.04.06.06.07.08.07.12,0,.2-.05.05-.11.1-.17.15-.07.06-.11.05-.18-.01-.04-.03-.07-.07-.1-.1-.19-.19-.37-.38-.56-.58-.07-.07-.14-.11-.23-.04-.02.01-.04.01-.06.02Z"/>
          <path class="cls-2" d="m30.06,16.95c.08.01.18-.03.22.06.04.08-.04.14-.07.2-.01.02-.03.05-.04.07-.08.15-.08.15.04.28.06.06.07.09.04.16-.02.04-.04.07-.06.11-.06.09-.09.1-.19.07-.03,0-.05-.02-.08-.03-.04-.01-.08,0-.11.04-.03.04-.06.09-.09.14-.08.14-.16.27-.23.41-.04.08-.03.12.04.18.02.02.05.03.07.05.01,0,.02.02.02.03.02.1-.03.17-.07.25-.04.06-.1.07-.16.05-.13-.03-.25-.09-.34-.19-.11-.12-.15-.26-.08-.42.08-.19.2-.36.29-.54.03-.05.06-.1.08-.14.04-.08.06-.15,0-.23-.04-.04-.03-.09,0-.13.02-.04.05-.08.07-.12.03-.05.07-.08.14-.07.06,0,.12,0,.14-.06.08-.15.21-.18.37-.17Z"/>
          <path class="cls-2" d="m21.29,18.63s0,.03-.01.04c-.01.02-.02.04-.04.05-.34.22-.33.23-.51-.09-.27-.47-.55-.94-.82-1.41-.01-.02-.02-.04-.03-.05-.12-.21-.11-.23.1-.35,0,0,.01,0,.02-.01.19-.11.21-.1.32.09.3.52.61,1.05.91,1.58.03.05.06.11.07.17Z"/>
          <path class="cls-2" d="m32.52,31.46s-.04-.02-.06-.03c-.08-.06-.13-.14-.17-.23-.02-.03,0-.07.02-.1.03-.03.06-.06.08-.09.08-.11.08-.2-.01-.3-.07-.08-.14-.15-.23-.21-.13-.1-.27-.2-.4-.29-.04-.03-.08-.06-.12-.09-.06-.05-.07-.09-.03-.16,0-.01.01-.02.02-.04.2-.29.21-.25.44-.09.3.22.61.43.91.65.2.14.2.16.06.36,0,.01-.01.02-.02.03-.12.1-.19.22-.24.37-.03.09-.1.15-.18.19-.02.01-.05.02-.07.02Z"/>
          <path class="cls-2" d="m17.38,23.47s-.07-.01-.12-.03c-.39-.13-.77-.25-1.16-.38-.21-.07-.22-.11-.14-.32.02-.04.03-.1.07-.12.1-.06.08-.13.06-.21-.02-.14.03-.26.12-.36.05-.06.1-.07.16-.03.07.05.13.1.19.15.03.03.04.07.02.11-.02.03-.03.06-.04.09-.04.12-.02.21.09.29.07.06.15.09.24.12.18.06.35.12.53.18.23.08.24.1.16.33-.02.05-.04.09-.06.13-.02.03-.05.05-.11.05Z"/>
          <path class="cls-2" d="m31.48,18.58s-.02.06-.04.07c-.05.04-.11.08-.17.12-.1.05-.12.05-.2-.02-.03-.03-.06-.06-.09-.08-.07-.04-.15-.05-.21,0-.07.05-.13.1-.19.16-.09.1-.18.21-.26.32-.06.07-.12.15-.18.23-.09.11-.13.11-.24.02-.06-.04-.12-.09-.18-.14-.03-.03-.04-.07-.01-.11.02-.03.05-.07.07-.1.24-.32.49-.63.73-.94,0-.01.02-.02.03-.03.13-.16.17-.16.33-.03.04.03.11.07.11.12,0,.12.09.12.17.13.12.03.23.09.3.21.02.03.03.06.04.1Z"/>
          <path class="cls-2" d="m32.07,19.18c0,.05-.02.08-.05.1-.08.08-.16.17-.25.25-.22.21-.45.43-.67.64-.18.17-.21.17-.38-.02,0-.01-.02-.02-.03-.03-.09-.11-.09-.15,0-.25.06-.06.12-.11.18-.17.24-.23.49-.47.73-.7.02-.02.04-.04.06-.06.1-.08.14-.09.23,0,.05.05.1.11.15.17.02.02.02.05.03.06Z"/>
          <path class="cls-2" d="m32.7,24.15c-.18,0-.32-.07-.42-.2-.04-.05-.04-.11,0-.15.05-.05.11-.07.17-.04.04.02.07.05.1.07.06.03.12.02.14-.04.08-.19.24-.17.4-.19.04,0,.07.02.08.05.05.09.07.19.07.3,0,.05-.03.09-.08.11-.15.05-.31.08-.45.09Z"/>
          <path class="cls-2" d="m32.24,18.46s.03,0,.04.01c.1.07.17.15.23.26,0,.01,0,.04,0,.06,0,.01-.01.03-.02.04-.08.08-.14.17-.25.2-.13-.05-.2-.16-.28-.26-.02-.02-.01-.06,0-.08.06-.09.14-.17.24-.22.01,0,.03,0,.04,0Z"/>
        </g>
      </g>
      <g>
        <path class="cls-3" d="m65.51,20.84c-.78,0-1.45-.21-2.03-.64-.57-.43-1.02-1.16-1.33-2.19s-.47-2.46-.47-4.28.16-3.25.47-4.28c.31-1.03.76-1.76,1.33-2.19s1.25-.64,2.03-.64c.68,0,1.28.17,1.8.5s.94.9,1.24,1.69.47,1.87.48,3.24l-2.01.08c-.05-1.38-.19-2.35-.42-2.89-.23-.54-.59-.81-1.07-.81-.33,0-.62.13-.86.39-.24.26-.43.71-.56,1.37-.13.65-.2,1.56-.2,2.72v1.67c0,1.15.07,2.05.2,2.7.13.65.33,1.11.57,1.38.25.27.54.4.87.4.48,0,.84-.27,1.06-.81.22-.54.36-1.5.41-2.87l2.01.06c-.03,1.4-.19,2.49-.51,3.28-.31.79-.73,1.34-1.25,1.67-.52.32-1.11.48-1.76.48Z"/>
        <path class="cls-3" d="m70.31,20.61V6.84h2.14v5.04c.24-.48.55-.83.92-1.05.37-.22.76-.33,1.17-.33.68,0,1.22.23,1.62.7.4.47.6,1.17.6,2.11v7.29h-2.16v-6.92c0-.53-.09-.9-.26-1.12-.17-.22-.42-.33-.74-.33s-.57.11-.8.32c-.23.21-.34.6-.34,1.17v6.88h-2.14Z"/>
        <path class="cls-3" d="m80.27,20.76c-.74,0-1.32-.24-1.73-.71-.41-.47-.62-1.13-.62-1.99s.22-1.52.66-2c.44-.48,1.06-.86,1.85-1.14l1.76-.66v-.8c0-.49-.09-.83-.28-1.01-.19-.18-.43-.27-.74-.27-.33,0-.6.12-.79.35-.2.23-.33.66-.39,1.28l-1.97-.25c.1-1,.42-1.75.97-2.28.54-.52,1.3-.79,2.29-.79,2.04,0,3.06,1.07,3.06,3.22v4.36c0,.32,0,.65,0,.99,0,.34.03.85.07,1.53h-1.99l-.11-1.07c-.2.41-.48.72-.83.92-.35.2-.75.3-1.2.3Zm-.25-2.87c0,.49.09.83.26,1.03.17.19.42.29.74.29.36,0,.64-.12.85-.36.21-.24.32-.55.32-.92v-2.19l-.96.41c-.37.17-.66.37-.88.62-.22.25-.33.62-.33,1.12Z"/>
        <path class="cls-3" d="m85.86,20.61v-9.87h2.12v1.09c.43-.88,1.1-1.32,2.01-1.32.41,0,.78.11,1.1.34s.56.58.7,1.08c.24-.49.55-.85.91-1.08s.77-.34,1.22-.34c.34,0,.68.08,1,.23.32.16.58.43.79.83.21.4.32.97.32,1.71v7.33h-2.14v-7c0-.49-.08-.84-.23-1.04-.15-.2-.38-.3-.67-.3s-.51.1-.7.29c-.19.19-.28.57-.28,1.12v6.92h-2.14v-7c0-.5-.08-.85-.25-1.05-.17-.19-.38-.29-.63-.29s-.48.09-.68.27c-.2.18-.3.56-.3,1.12v6.94h-2.14Z"/>
        <path class="cls-3" d="m97.53,20.61V6.84h2.14v4.81c.22-.4.48-.69.79-.87.31-.18.66-.27,1.04-.27.54,0,1.02.16,1.44.49s.77.87,1.02,1.62c.26.75.38,1.77.38,3.06s-.13,2.28-.38,3.03-.6,1.3-1.02,1.63-.9.49-1.41.49c-.43,0-.83-.1-1.18-.3s-.63-.51-.85-.92l-.13.99h-1.86Zm2.14-3.45c0,.79.12,1.32.37,1.59.25.27.55.41.89.41.41,0,.72-.19.93-.56s.32-.96.32-1.76v-2.31c0-.81-.11-1.41-.32-1.78s-.52-.56-.93-.56c-.34,0-.64.14-.89.43-.25.28-.37.85-.37,1.71v2.85Z"/>
        <path class="cls-3" d="m108.8,20.84c-.66,0-1.25-.17-1.77-.49-.52-.33-.92-.87-1.21-1.63s-.43-1.77-.43-3.03.15-2.28.44-3.03.7-1.3,1.21-1.64c.51-.34,1.1-.5,1.76-.5.73,0,1.31.17,1.74.5.43.34.76.78.97,1.33s.33,1.14.37,1.78c.04.64.03,1.26-.02,1.87h-4.33v.7c0,.94.11,1.6.33,1.96.22.36.55.54.97.54.4,0,.67-.16.83-.48.16-.32.28-.87.35-1.63l1.89.16c-.08,1.29-.4,2.22-.98,2.77-.57.56-1.29.83-2.14.83Zm-1.26-6.28v.06h2.47v-.12c0-.92-.1-1.54-.29-1.88-.19-.34-.49-.5-.88-.5s-.73.18-.96.53c-.23.36-.34.99-.34,1.91Z"/>
        <path class="cls-3" d="m113.23,20.61v-9.87h2.12v1.32c.2-.54.47-.93.79-1.16.33-.23.67-.35,1.02-.35.09,0,.19,0,.29.02s.21.04.33.08v1.94c-.45-.05-.85-.05-1.22,0s-.65.22-.87.48c-.22.27-.33.69-.33,1.27v6.26h-2.14Z"/>
        <path class="cls-3" d="m124.29,20.84c-.68,0-1.28-.17-1.8-.49s-.93-.88-1.22-1.64c-.29-.76-.44-1.78-.44-3.04s.15-2.27.44-3.02c.29-.75.7-1.29,1.22-1.63.52-.34,1.12-.5,1.8-.5s1.29.17,1.81.5c.52.34.92.88,1.22,1.63.29.75.44,1.76.44,3.02s-.15,2.28-.44,3.04c-.29.76-.7,1.31-1.22,1.64-.52.33-1.12.49-1.81.49Zm0-1.69c.41,0,.72-.18.95-.54.22-.36.33-1,.33-1.92v-2.04c0-.92-.11-1.56-.33-1.92-.22-.36-.54-.54-.95-.54s-.72.18-.95.54c-.22.36-.34,1-.34,1.92v2.04c0,.92.11,1.56.34,1.92.22.36.54.54.95.54Z"/>
        <path class="cls-3" d="m129.42,20.61v-8.22h-1.03v-1.65h1.03v-1.1c0-1.06.26-1.83.78-2.31.52-.48,1.16-.72,1.92-.72.43,0,.86.06,1.28.19v1.61c-.18-.03-.33-.05-.47-.07-.13-.02-.26-.03-.37-.03-.29,0-.53.09-.72.27-.19.18-.28.5-.28.95v1.2h1.51v1.65h-1.51v8.22h-2.14Z"/>
        <path class="cls-3" d="m136.48,20.61V6.84h2.18v13.77h-2.18Z"/>
        <path class="cls-3" d="m140.29,20.61v-9.87h2.12v1.18c.23-.49.53-.85.91-1.08.38-.23.78-.34,1.2-.34.68,0,1.21.23,1.61.7.4.47.59,1.17.59,2.11v7.29h-2.14v-6.92c0-.53-.09-.9-.26-1.12-.17-.22-.42-.33-.74-.33s-.57.11-.8.32c-.23.21-.34.6-.34,1.17v6.88h-2.14Z"/>
        <path class="cls-3" d="m150.8,20.84c-.51,0-.98-.17-1.41-.49-.43-.33-.77-.87-1.02-1.63s-.38-1.77-.38-3.03.13-2.31.38-3.06c.26-.75.6-1.29,1.03-1.62s.91-.49,1.44-.49c.38,0,.73.09,1.04.27.31.18.58.47.79.87v-4.81h2.14v13.77h-2.12v-.99c-.2.43-.47.74-.79.93-.33.19-.69.29-1.1.29Zm-.63-4.01c0,.8.11,1.39.32,1.76s.51.56.91.56c.36,0,.66-.14.91-.41s.37-.8.37-1.59v-2.85c0-.85-.12-1.42-.37-1.71-.25-.28-.55-.43-.91-.43-.4,0-.7.19-.91.56s-.32.97-.32,1.78v2.31Z"/>
        <path class="cls-3" d="m158.53,20.84c-.63,0-1.15-.22-1.56-.66-.41-.44-.62-1.15-.62-2.13v-7.31h2.14v6.92c0,.57.09.95.27,1.15.18.2.41.3.71.3s.54-.1.77-.31c.23-.21.34-.59.34-1.14v-6.92h2.14v9.87h-2.12v-1.14c-.23.48-.52.83-.88,1.05-.36.22-.75.33-1.19.33Z"/>
        <path class="cls-3" d="m167.03,20.84c-1.12,0-1.94-.32-2.44-.97-.5-.65-.75-1.47-.74-2.46l1.82-.06c.01,1.25.47,1.88,1.36,1.88.37,0,.65-.1.84-.3.19-.2.29-.46.29-.79,0-.35-.11-.63-.33-.84-.22-.21-.51-.42-.88-.63l-.88-.48c-.68-.37-1.18-.8-1.51-1.28-.33-.48-.5-1.04-.5-1.69,0-.84.27-1.5.82-1.99s1.25-.73,2.11-.73c1.05,0,1.81.29,2.29.87.48.58.7,1.38.68,2.38l-1.82.04c-.01-.61-.12-1.04-.32-1.3-.2-.26-.47-.39-.81-.39s-.62.09-.79.27c-.17.18-.26.41-.26.68,0,.31.09.57.26.77.17.2.44.41.81.63l1.13.66c.62.36,1.1.75,1.44,1.16.33.41.5.98.5,1.69,0,.87-.27,1.56-.79,2.08-.53.52-1.29.79-2.27.79Z"/>
        <path class="cls-3" d="m174.07,20.84c-.75,0-1.33-.2-1.73-.61-.4-.41-.6-1.02-.6-1.83v-6.01h-1.03v-1.65h1.11l.25-2.54h1.82v2.54h1.68v1.65h-1.68v5.58c0,.4.09.68.27.83.18.16.41.23.69.23.13,0,.26,0,.39-.02.13-.01.29-.05.47-.1v1.63c-.54.19-1.08.29-1.63.29Z"/>
        <path class="cls-3" d="m176.73,20.61v-9.87h2.12v1.32c.2-.54.47-.93.79-1.16.33-.23.67-.35,1.02-.35.09,0,.19,0,.29.02s.21.04.33.08v1.94c-.45-.05-.85-.05-1.22,0s-.65.22-.87.48c-.22.27-.33.69-.33,1.27v6.26h-2.14Z"/>
        <path class="cls-3" d="m182.24,9.28v-2.05h2.14v2.05h-2.14Zm0,11.32v-9.87h2.14v9.87h-2.14Z"/>
        <path class="cls-3" d="m189.08,20.84c-.66,0-1.25-.17-1.77-.49-.52-.33-.92-.87-1.21-1.63s-.43-1.77-.43-3.03.15-2.28.44-3.03.7-1.3,1.21-1.64c.51-.34,1.1-.5,1.76-.5.73,0,1.31.17,1.74.5.43.34.76.78.97,1.33s.33,1.14.37,1.78c.04.64.03,1.26-.02,1.87h-4.33v.7c0,.94.11,1.6.33,1.96.22.36.55.54.97.54.4,0,.67-.16.83-.48.16-.32.28-.87.35-1.63l1.89.16c-.08,1.29-.4,2.22-.98,2.77-.57.56-1.29.83-2.14.83Zm-1.26-6.28v.06h2.47v-.12c0-.92-.1-1.54-.29-1.88-.19-.34-.49-.5-.88-.5s-.73.18-.96.53c-.23.36-.34.99-.34,1.91Z"/>
        <path class="cls-3" d="m196.26,20.84c-1.12,0-1.94-.32-2.44-.97-.5-.65-.75-1.47-.74-2.46l1.82-.06c.01,1.25.47,1.88,1.36,1.88.37,0,.65-.1.84-.3.19-.2.29-.46.29-.79,0-.35-.11-.63-.33-.84-.22-.21-.51-.42-.88-.63l-.88-.48c-.68-.37-1.18-.8-1.51-1.28-.33-.48-.5-1.04-.5-1.69,0-.84.27-1.5.82-1.99s1.25-.73,2.11-.73c1.05,0,1.81.29,2.29.87.48.58.7,1.38.68,2.38l-1.82.04c-.01-.61-.12-1.04-.32-1.3-.2-.26-.47-.39-.81-.39s-.62.09-.79.27c-.17.18-.26.41-.26.68,0,.31.09.57.26.77.17.2.44.41.81.63l1.13.66c.62.36,1.1.75,1.44,1.16.33.41.5.98.5,1.69,0,.87-.27,1.56-.79,2.08-.53.52-1.29.79-2.27.79Z"/>
        <path class="cls-3" d="m200.49,23.22l.57-2.62h-.75v-2.11h2.12v1.76l-.88,2.97h-1.07Z"/>
        <path class="cls-3" d="m61.95,39.97v-13.77h3.41l1.51,11.03h.04l1.51-11.03h3.29v13.77h-1.97v-11.75l-.06-.02-1.78,11.77h-2.18l-1.78-11.75h-.08v11.75h-1.91Z"/>
        <path class="cls-3" d="m76.48,40.2c-.68,0-1.28-.17-1.8-.49s-.93-.88-1.22-1.64c-.29-.76-.44-1.78-.44-3.04s.15-2.27.44-3.02c.29-.75.7-1.29,1.22-1.63.52-.34,1.12-.5,1.8-.5s1.29.17,1.81.5c.52.34.92.88,1.22,1.63.29.75.44,1.76.44,3.02s-.15,2.28-.44,3.04c-.29.76-.7,1.31-1.22,1.64-.52.33-1.12.49-1.81.49Zm0-1.69c.41,0,.72-.18.95-.54.22-.36.33-1,.33-1.92v-2.04c0-.92-.11-1.56-.33-1.92-.22-.36-.54-.54-.95-.54s-.72.18-.95.54c-.22.36-.34,1-.34,1.92v2.04c0,.92.11,1.56.34,1.92.22.36.54.54.95.54Z"/>
        <path class="cls-3" d="m81.22,39.97v-9.87h2.12v1.32c.2-.54.47-.93.79-1.16.33-.23.67-.35,1.02-.35.09,0,.19,0,.29.02s.21.04.33.08v1.94c-.45-.05-.85-.05-1.22,0s-.65.22-.87.48c-.22.27-.33.69-.33,1.27v6.26h-2.14Z"/>
        <path class="cls-3" d="m88.4,40.12c-.74,0-1.32-.24-1.73-.71-.41-.47-.62-1.13-.62-1.99s.22-1.52.66-2c.44-.48,1.06-.86,1.85-1.14l1.76-.66v-.8c0-.49-.09-.83-.28-1.01-.19-.18-.43-.27-.74-.27-.33,0-.6.12-.79.35-.2.23-.33.66-.39,1.28l-1.97-.25c.1-1,.42-1.75.97-2.28.54-.52,1.3-.79,2.29-.79,2.04,0,3.06,1.07,3.06,3.22v4.36c0,.32,0,.65,0,.99,0,.34.03.85.07,1.53h-1.99l-.11-1.07c-.2.41-.48.72-.83.92-.35.2-.75.3-1.2.3Zm-.25-2.87c0,.49.09.83.26,1.03.17.19.42.29.74.29.36,0,.64-.12.85-.36.21-.24.32-.55.32-.92v-2.19l-.96.41c-.37.17-.66.37-.88.62-.22.25-.33.62-.33,1.12Z"/>
        <path class="cls-3" d="m93.99,39.97v-9.87h2.12v1.18c.23-.49.53-.85.91-1.08.38-.23.78-.34,1.2-.34.68,0,1.21.23,1.61.7.4.47.59,1.17.59,2.11v7.29h-2.14v-6.92c0-.53-.09-.9-.26-1.12-.17-.22-.42-.33-.74-.33s-.57.11-.8.32c-.23.21-.34.6-.34,1.17v6.88h-2.14Z"/>
        <path class="cls-3" d="m104.98,43.4c-1.24,0-2.14-.22-2.72-.67-.57-.45-.86-1.01-.86-1.68,0-.45.15-.88.44-1.27.29-.39.74-.69,1.34-.9-.31-.17-.53-.38-.68-.65-.15-.26-.22-.53-.22-.8s.06-.55.19-.8c.13-.25.29-.48.5-.67-.91-.57-1.36-1.49-1.36-2.77,0-.97.28-1.76.85-2.38.57-.62,1.39-.93,2.48-.93.68,0,1.26.13,1.76.39.2-.43.45-.74.74-.95.29-.21.6-.31.93-.31.15,0,.31.02.46.06v1.74c-.23-.03-.45-.03-.65,0-.2.03-.39.1-.55.21.46.58.69,1.31.69,2.17,0,.98-.29,1.78-.87,2.38-.58.61-1.41.91-2.5.91-.32,0-.61-.03-.88-.08-.08.14-.11.29-.11.45,0,.36.29.6.86.72l1.8.35c.83.17,1.43.48,1.8.93.37.45.56.98.56,1.59,0,.97-.36,1.71-1.08,2.21s-1.69.76-2.9.76Zm-1.76-2.68c0,.41.17.72.5.91.33.19.8.29,1.4.29s1.11-.1,1.46-.29c.35-.19.53-.47.53-.83,0-.28-.11-.52-.32-.71-.21-.19-.55-.33-1.02-.42l-1.49-.23c-.7.28-1.05.71-1.05,1.28Zm1.72-5.62c.45,0,.77-.17.96-.49.19-.33.29-.81.29-1.44s-.1-1.1-.29-1.42c-.19-.33-.51-.49-.96-.49s-.76.17-.95.5c-.19.34-.28.81-.28,1.42,0,.66.1,1.15.29,1.46.19.32.5.48.94.48Z"/>
      </g>
    </g>
  </g>
</svg>